# xmcd
#
# Track frame offsets: 
#        182
#        17787
#        40032
#        66087
#        80297
#        101280
#
# Disc length: 1596 seconds
#
# Revision: 0
# Processed by: cddbd v1.5.2PL0 Copyright (c) Steve Scherf et al.
# Submitted via: ExactAudioCopy v1.3
#
DISCID=3b063a06
DTITLE=Phalon - Dance Floor Of Life (Promo CDM)
DYEAR=1990
DGENRE=Funk
TTITLE0=Dance Floor Of Life (Radio Edit)
TTITLE1=Dance Floor Of Life (Extended Version)
TTITLE2=Dance Floor Of Life (Jazzie's House Mix)
TTITLE3=Dance Floor Of Life (Radio Mix)
TTITLE4=Dance Floor Of Life (LP Version)
TTITLE5=Dance Floor Of Life (Instrumental)
EXTD=
EXTT0=
EXTT1=
EXTT2=
EXTT3=
EXTT4=
EXTT5=
PLAYORDER=
